<?xml version="1.0" encoding="UTF-8" standalone="no"?>
<!DOCTYPE svg PUBLIC "-//W3C//DTD SVG 1.1//EN"
 "http://www.w3.org/Graphics/SVG/1.1/DTD/svg11.dtd">
<!-- Generated by graphviz version 13.1.1 (20250719.2154)
 -->
<!-- Pages: 1 -->
<svg width="1870pt" height="310pt"
 viewBox="0.00 0.00 1870.00 310.00" xmlns="http://www.w3.org/2000/svg" xmlns:xlink="http://www.w3.org/1999/xlink">
<g id="graph0" class="graph" transform="scale(1 1) rotate(0) translate(4 305.5)">
<polygon fill="white" stroke="none" points="-4,4 -4,-305.5 1865.76,-305.5 1865.76,4 -4,4"/>
<!-- 0 -->
<g id="node1" class="node">
<title>0</title>
<ellipse fill="none" stroke="black" cx="930.88" cy="-283.5" rx="187.49" ry="18"/>
<text xml:space="preserve" text-anchor="middle" x="930.88" y="-278.45" font-family="Times,serif" font-size="14.00">prevloans__prev_delay_mean, value&gt;0.617028</text>
</g>
<!-- 1 -->
<g id="node2" class="node">
<title>1</title>
<ellipse fill="none" stroke="black" cx="695.88" cy="-195" rx="154.22" ry="18"/>
<text xml:space="preserve" text-anchor="middle" x="695.88" y="-189.95" font-family="Times,serif" font-size="14.00">scaler__loanamount, value&gt;&#45;0.493937</text>
</g>
<!-- 0&#45;&gt;1 -->
<g id="edge1" class="edge">
<title>0&#45;&gt;1</title>
<path fill="none" stroke="black" d="M885.01,-265.62C846.75,-251.54 792.12,-231.42 751.39,-216.43"/>
<polygon fill="black" stroke="black" points="752.85,-213.24 742.25,-213.07 750.43,-219.81 752.85,-213.24"/>
<text xml:space="preserve" text-anchor="middle" x="842.68" y="-234.2" font-family="Times,serif" font-size="14.00">No</text>
</g>
<!-- 2 -->
<g id="node3" class="node">
<title>2</title>
<ellipse fill="none" stroke="black" cx="1165.88" cy="-195" rx="154.22" ry="18"/>
<text xml:space="preserve" text-anchor="middle" x="1165.88" y="-189.95" font-family="Times,serif" font-size="14.00">scaler__loanamount, value&gt;&#45;0.493937</text>
</g>
<!-- 0&#45;&gt;2 -->
<g id="edge2" class="edge">
<title>0&#45;&gt;2</title>
<path fill="none" stroke="black" d="M976.75,-265.62C1015,-251.54 1069.64,-231.42 1110.36,-216.43"/>
<polygon fill="black" stroke="black" points="1111.33,-219.81 1119.5,-213.07 1108.91,-213.24 1111.33,-219.81"/>
<text xml:space="preserve" text-anchor="middle" x="1079.55" y="-234.2" font-family="Times,serif" font-size="14.00">Yes</text>
</g>
<!-- 3 -->
<g id="node4" class="node">
<title>3</title>
<ellipse fill="none" stroke="black" cx="225.88" cy="-106.5" rx="225.88" ry="18"/>
<text xml:space="preserve" text-anchor="middle" x="225.88" y="-101.45" font-family="Times,serif" font-size="14.00">prevloans__prev_early_payment_mean, value&gt;&#45;0.798172</text>
</g>
<!-- 1&#45;&gt;3 -->
<g id="edge3" class="edge">
<title>1&#45;&gt;3</title>
<path fill="none" stroke="black" d="M615.62,-179.23C534.99,-164.39 410.62,-141.5 324.13,-125.58"/>
<polygon fill="black" stroke="black" points="324.94,-122.17 314.48,-123.81 323.68,-129.06 324.94,-122.17"/>
<text xml:space="preserve" text-anchor="middle" x="511.22" y="-145.7" font-family="Times,serif" font-size="14.00">No</text>
</g>
<!-- 4 -->
<g id="node5" class="node">
<title>4</title>
<ellipse fill="none" stroke="black" cx="695.88" cy="-106.5" rx="225.88" ry="18"/>
<text xml:space="preserve" text-anchor="middle" x="695.88" y="-101.45" font-family="Times,serif" font-size="14.00">prevloans__prev_early_payment_mean, value&gt;&#45;0.798172</text>
</g>
<!-- 1&#45;&gt;4 -->
<g id="edge4" class="edge">
<title>1&#45;&gt;4</title>
<path fill="none" stroke="black" d="M695.88,-176.91C695.88,-165.26 695.88,-149.55 695.88,-136.02"/>
<polygon fill="black" stroke="black" points="699.38,-136.36 695.88,-126.36 692.38,-136.36 699.38,-136.36"/>
<text xml:space="preserve" text-anchor="middle" x="706" y="-145.7" font-family="Times,serif" font-size="14.00">Yes</text>
</g>
<!-- 5 -->
<g id="node6" class="node">
<title>5</title>
<ellipse fill="none" stroke="black" cx="1165.88" cy="-106.5" rx="225.88" ry="18"/>
<text xml:space="preserve" text-anchor="middle" x="1165.88" y="-101.45" font-family="Times,serif" font-size="14.00">prevloans__prev_early_payment_mean, value&gt;&#45;0.798172</text>
</g>
<!-- 2&#45;&gt;5 -->
<g id="edge5" class="edge">
<title>2&#45;&gt;5</title>
<path fill="none" stroke="black" d="M1165.88,-176.91C1165.88,-165.26 1165.88,-149.55 1165.88,-136.02"/>
<polygon fill="black" stroke="black" points="1169.38,-136.36 1165.88,-126.36 1162.38,-136.36 1169.38,-136.36"/>
<text xml:space="preserve" text-anchor="middle" x="1174.13" y="-145.7" font-family="Times,serif" font-size="14.00">No</text>
</g>
<!-- 6 -->
<g id="node7" class="node">
<title>6</title>
<ellipse fill="none" stroke="black" cx="1635.88" cy="-106.5" rx="225.88" ry="18"/>
<text xml:space="preserve" text-anchor="middle" x="1635.88" y="-101.45" font-family="Times,serif" font-size="14.00">prevloans__prev_early_payment_mean, value&gt;&#45;0.798172</text>
</g>
<!-- 2&#45;&gt;6 -->
<g id="edge6" class="edge">
<title>2&#45;&gt;6</title>
<path fill="none" stroke="black" d="M1246.14,-179.23C1326.77,-164.39 1451.14,-141.5 1537.62,-125.58"/>
<polygon fill="black" stroke="black" points="1538.08,-129.06 1547.28,-123.81 1536.81,-122.17 1538.08,-129.06"/>
<text xml:space="preserve" text-anchor="middle" x="1453.1" y="-145.7" font-family="Times,serif" font-size="14.00">Yes</text>
</g>
<!-- 7 -->
<g id="node8" class="node">
<title>7</title>
<polygon fill="none" stroke="red" points="218.63,-36 135.13,-36 135.13,0 218.63,0 218.63,-36"/>
<text xml:space="preserve" text-anchor="middle" x="176.88" y="-12.95" font-family="Times,serif" font-size="14.00">val = &#45;0.164</text>
</g>
<!-- 3&#45;&gt;7 -->
<g id="edge7" class="edge">
<title>3&#45;&gt;7</title>
<path fill="none" stroke="black" d="M216.2,-88.41C209.4,-76.4 200.15,-60.09 192.34,-46.3"/>
<polygon fill="black" stroke="black" points="195.43,-44.64 187.45,-37.67 189.34,-48.09 195.43,-44.64"/>
<text xml:space="preserve" text-anchor="middle" x="214.02" y="-57.2" font-family="Times,serif" font-size="14.00">No</text>
</g>
<!-- 8 -->
<g id="node9" class="node">
<title>8</title>
<polygon fill="none" stroke="red" points="315.38,-36 236.38,-36 236.38,0 315.38,0 315.38,-36"/>
<text xml:space="preserve" text-anchor="middle" x="275.88" y="-12.95" font-family="Times,serif" font-size="14.00">val = 0.637</text>
</g>
<!-- 3&#45;&gt;8 -->
<g id="edge8" class="edge">
<title>3&#45;&gt;8</title>
<path fill="none" stroke="black" d="M235.76,-88.41C242.7,-76.4 252.13,-60.09 260.1,-46.3"/>
<polygon fill="black" stroke="black" points="263.12,-48.07 265.09,-37.66 257.06,-44.57 263.12,-48.07"/>
<text xml:space="preserve" text-anchor="middle" x="265.48" y="-57.2" font-family="Times,serif" font-size="14.00">Yes</text>
</g>
<!-- 9 -->
<g id="node10" class="node">
<title>9</title>
<polygon fill="none" stroke="red" points="686.38,-36 607.38,-36 607.38,0 686.38,0 686.38,-36"/>
<text xml:space="preserve" text-anchor="middle" x="646.88" y="-12.95" font-family="Times,serif" font-size="14.00">val = 0.133</text>
</g>
<!-- 4&#45;&gt;9 -->
<g id="edge9" class="edge">
<title>4&#45;&gt;9</title>
<path fill="none" stroke="black" d="M686.2,-88.41C679.4,-76.4 670.15,-60.09 662.34,-46.3"/>
<polygon fill="black" stroke="black" points="665.43,-44.64 657.45,-37.67 659.34,-48.09 665.43,-44.64"/>
<text xml:space="preserve" text-anchor="middle" x="684.02" y="-57.2" font-family="Times,serif" font-size="14.00">No</text>
</g>
<!-- 10 -->
<g id="node11" class="node">
<title>10</title>
<polygon fill="none" stroke="red" points="783.38,-36 704.38,-36 704.38,0 783.38,0 783.38,-36"/>
<text xml:space="preserve" text-anchor="middle" x="743.88" y="-12.95" font-family="Times,serif" font-size="14.00">val = 0.703</text>
</g>
<!-- 4&#45;&gt;10 -->
<g id="edge10" class="edge">
<title>4&#45;&gt;10</title>
<path fill="none" stroke="black" d="M705.36,-88.41C712.02,-76.4 721.08,-60.09 728.73,-46.3"/>
<polygon fill="black" stroke="black" points="731.72,-48.12 733.52,-37.67 725.6,-44.72 731.72,-48.12"/>
<text xml:space="preserve" text-anchor="middle" x="734.3" y="-57.2" font-family="Times,serif" font-size="14.00">Yes</text>
</g>
<!-- 11 -->
<g id="node12" class="node">
<title>11</title>
<polygon fill="none" stroke="red" points="1157.63,-36 1074.13,-36 1074.13,0 1157.63,0 1157.63,-36"/>
<text xml:space="preserve" text-anchor="middle" x="1115.88" y="-12.95" font-family="Times,serif" font-size="14.00">val = &#45;0.120</text>
</g>
<!-- 5&#45;&gt;11 -->
<g id="edge11" class="edge">
<title>5&#45;&gt;11</title>
<path fill="none" stroke="black" d="M1156,-88.41C1149.06,-76.4 1139.63,-60.09 1131.66,-46.3"/>
<polygon fill="black" stroke="black" points="1134.7,-44.57 1126.66,-37.66 1128.64,-48.07 1134.7,-44.57"/>
<text xml:space="preserve" text-anchor="middle" x="1153.61" y="-57.2" font-family="Times,serif" font-size="14.00">No</text>
</g>
<!-- 12 -->
<g id="node13" class="node">
<title>12</title>
<polygon fill="none" stroke="red" points="1254.38,-36 1175.38,-36 1175.38,0 1254.38,0 1254.38,-36"/>
<text xml:space="preserve" text-anchor="middle" x="1214.88" y="-12.95" font-family="Times,serif" font-size="14.00">val = 0.397</text>
</g>
<!-- 5&#45;&gt;12 -->
<g id="edge12" class="edge">
<title>5&#45;&gt;12</title>
<path fill="none" stroke="black" d="M1175.56,-88.41C1182.36,-76.4 1191.6,-60.09 1199.42,-46.3"/>
<polygon fill="black" stroke="black" points="1202.42,-48.09 1204.3,-37.67 1196.33,-44.64 1202.42,-48.09"/>
<text xml:space="preserve" text-anchor="middle" x="1204.89" y="-57.2" font-family="Times,serif" font-size="14.00">Yes</text>
</g>
<!-- 13 -->
<g id="node14" class="node">
<title>13</title>
<polygon fill="none" stroke="red" points="1626.38,-36 1547.38,-36 1547.38,0 1626.38,0 1626.38,-36"/>
<text xml:space="preserve" text-anchor="middle" x="1586.88" y="-12.95" font-family="Times,serif" font-size="14.00">val = 0.185</text>
</g>
<!-- 6&#45;&gt;13 -->
<g id="edge13" class="edge">
<title>6&#45;&gt;13</title>
<path fill="none" stroke="black" d="M1626.2,-88.41C1619.4,-76.4 1610.15,-60.09 1602.34,-46.3"/>
<polygon fill="black" stroke="black" points="1605.43,-44.64 1597.45,-37.67 1599.34,-48.09 1605.43,-44.64"/>
<text xml:space="preserve" text-anchor="middle" x="1624.02" y="-57.2" font-family="Times,serif" font-size="14.00">No</text>
</g>
<!-- 14 -->
<g id="node15" class="node">
<title>14</title>
<polygon fill="none" stroke="red" points="1723.38,-36 1644.38,-36 1644.38,0 1723.38,0 1723.38,-36"/>
<text xml:space="preserve" text-anchor="middle" x="1683.88" y="-12.95" font-family="Times,serif" font-size="14.00">val = 0.633</text>
</g>
<!-- 6&#45;&gt;14 -->
<g id="edge14" class="edge">
<title>6&#45;&gt;14</title>
<path fill="none" stroke="black" d="M1645.36,-88.41C1652.02,-76.4 1661.08,-60.09 1668.73,-46.3"/>
<polygon fill="black" stroke="black" points="1671.72,-48.12 1673.52,-37.67 1665.6,-44.72 1671.72,-48.12"/>
<text xml:space="preserve" text-anchor="middle" x="1674.3" y="-57.2" font-family="Times,serif" font-size="14.00">Yes</text>
</g>
</g>
</svg>
