<?xml version="1.0" encoding="UTF-8" standalone="no"?>
<!DOCTYPE svg PUBLIC "-//W3C//DTD SVG 1.1//EN"
 "http://www.w3.org/Graphics/SVG/1.1/DTD/svg11.dtd">
<!-- Generated by graphviz version 13.1.1 (20250719.2154)
 -->
<!-- Pages: 1 -->
<svg width="930pt" height="221pt"
 viewBox="0.00 0.00 930.00 221.00" xmlns="http://www.w3.org/2000/svg" xmlns:xlink="http://www.w3.org/1999/xlink">
<g id="graph0" class="graph" transform="scale(1 1) rotate(0) translate(4 217)">
<polygon fill="white" stroke="none" points="-4,4 -4,-217 925.76,-217 925.76,4 -4,4"/>
<!-- 0 -->
<g id="node1" class="node">
<title>0</title>
<ellipse fill="none" stroke="black" cx="460.88" cy="-195" rx="154.22" ry="18"/>
<text xml:space="preserve" text-anchor="middle" x="460.88" y="-189.95" font-family="Times,serif" font-size="14.00">scaler__loanamount, value&gt;&#45;0.493937</text>
</g>
<!-- 1 -->
<g id="node2" class="node">
<title>1</title>
<ellipse fill="none" stroke="black" cx="225.88" cy="-106.5" rx="225.88" ry="18"/>
<text xml:space="preserve" text-anchor="middle" x="225.88" y="-101.45" font-family="Times,serif" font-size="14.00">prevloans__prev_early_payment_mean, value&gt;&#45;0.798172</text>
</g>
<!-- 0&#45;&gt;1 -->
<g id="edge1" class="edge">
<title>0&#45;&gt;1</title>
<path fill="none" stroke="black" d="M415.57,-177.32C377.74,-163.4 323.6,-143.47 282.84,-128.47"/>
<polygon fill="black" stroke="black" points="284.27,-125.26 273.67,-125.09 281.85,-131.83 284.27,-125.26"/>
<text xml:space="preserve" text-anchor="middle" x="372.68" y="-145.7" font-family="Times,serif" font-size="14.00">No</text>
</g>
<!-- 2 -->
<g id="node3" class="node">
<title>2</title>
<ellipse fill="none" stroke="black" cx="695.88" cy="-106.5" rx="225.88" ry="18"/>
<text xml:space="preserve" text-anchor="middle" x="695.88" y="-101.45" font-family="Times,serif" font-size="14.00">prevloans__prev_early_payment_mean, value&gt;&#45;0.798172</text>
</g>
<!-- 0&#45;&gt;2 -->
<g id="edge2" class="edge">
<title>0&#45;&gt;2</title>
<path fill="none" stroke="black" d="M506.19,-177.32C544.02,-163.4 598.15,-143.47 638.92,-128.47"/>
<polygon fill="black" stroke="black" points="639.91,-131.83 648.08,-125.09 637.49,-125.26 639.91,-131.83"/>
<text xml:space="preserve" text-anchor="middle" x="609.55" y="-145.7" font-family="Times,serif" font-size="14.00">Yes</text>
</g>
<!-- 3 -->
<g id="node4" class="node">
<title>3</title>
<polygon fill="none" stroke="red" points="218.63,-36 135.13,-36 135.13,0 218.63,0 218.63,-36"/>
<text xml:space="preserve" text-anchor="middle" x="176.88" y="-12.95" font-family="Times,serif" font-size="14.00">val = &#45;0.137</text>
</g>
<!-- 1&#45;&gt;3 -->
<g id="edge3" class="edge">
<title>1&#45;&gt;3</title>
<path fill="none" stroke="black" d="M216.2,-88.41C209.4,-76.4 200.15,-60.09 192.34,-46.3"/>
<polygon fill="black" stroke="black" points="195.43,-44.64 187.45,-37.67 189.34,-48.09 195.43,-44.64"/>
<text xml:space="preserve" text-anchor="middle" x="214.02" y="-57.2" font-family="Times,serif" font-size="14.00">No</text>
</g>
<!-- 4 -->
<g id="node5" class="node">
<title>4</title>
<polygon fill="none" stroke="red" points="315.38,-36 236.38,-36 236.38,0 315.38,0 315.38,-36"/>
<text xml:space="preserve" text-anchor="middle" x="275.88" y="-12.95" font-family="Times,serif" font-size="14.00">val = 0.586</text>
</g>
<!-- 1&#45;&gt;4 -->
<g id="edge4" class="edge">
<title>1&#45;&gt;4</title>
<path fill="none" stroke="black" d="M235.76,-88.41C242.7,-76.4 252.13,-60.09 260.1,-46.3"/>
<polygon fill="black" stroke="black" points="263.12,-48.07 265.09,-37.66 257.06,-44.57 263.12,-48.07"/>
<text xml:space="preserve" text-anchor="middle" x="265.48" y="-57.2" font-family="Times,serif" font-size="14.00">Yes</text>
</g>
<!-- 5 -->
<g id="node6" class="node">
<title>5</title>
<polygon fill="none" stroke="red" points="686.38,-36 607.38,-36 607.38,0 686.38,0 686.38,-36"/>
<text xml:space="preserve" text-anchor="middle" x="646.88" y="-12.95" font-family="Times,serif" font-size="14.00">val = 0.194</text>
</g>
<!-- 2&#45;&gt;5 -->
<g id="edge5" class="edge">
<title>2&#45;&gt;5</title>
<path fill="none" stroke="black" d="M686.2,-88.41C679.4,-76.4 670.15,-60.09 662.34,-46.3"/>
<polygon fill="black" stroke="black" points="665.43,-44.64 657.45,-37.67 659.34,-48.09 665.43,-44.64"/>
<text xml:space="preserve" text-anchor="middle" x="684.02" y="-57.2" font-family="Times,serif" font-size="14.00">No</text>
</g>
<!-- 6 -->
<g id="node7" class="node">
<title>6</title>
<polygon fill="none" stroke="red" points="783.38,-36 704.38,-36 704.38,0 783.38,0 783.38,-36"/>
<text xml:space="preserve" text-anchor="middle" x="743.88" y="-12.95" font-family="Times,serif" font-size="14.00">val = 0.699</text>
</g>
<!-- 2&#45;&gt;6 -->
<g id="edge6" class="edge">
<title>2&#45;&gt;6</title>
<path fill="none" stroke="black" d="M705.36,-88.41C712.02,-76.4 721.08,-60.09 728.73,-46.3"/>
<polygon fill="black" stroke="black" points="731.72,-48.12 733.52,-37.67 725.6,-44.72 731.72,-48.12"/>
<text xml:space="preserve" text-anchor="middle" x="734.3" y="-57.2" font-family="Times,serif" font-size="14.00">Yes</text>
</g>
</g>
</svg>
